#define litprog-small_width 150
#define litprog-small_height 101
static char litprog-small_bits[] = {
 0x00,0x00,0x00,0x00,0x00,0x00,0x00,0x00,0x00,0x00,0x00,0x00,0x00,0x00,0x00,
 0x00,0x00,0x00,0xc0,0x00,0x00,0x00,0x00,0x00,0x00,0x00,0x00,0x00,0x00,0x00,
 0x00,0x00,0x00,0x00,0x00,0x00,0x00,0xc0,0x00,0x00,0x00,0x00,0x00,0x00,0x00,
 0x00,0x00,0x00,0x00,0x00,0x00,0x00,0x00,0x00,0x00,0x00,0xc0,0x00,0x00,0x00,
 0x00,0x00,0x00,0x00,0x00,0x00,0x00,0x00,0x00,0x00,0x00,0x00,0x00,0x00,0x00,
 0xc0,0x00,0x00,0x00,0x00,0x00,0x00,0x00,0x00,0x00,0x00,0x00,0x00,0x00,0x00,
 0x00,0x00,0x00,0x00,0xc0,0x00,0x00,0x00,0x00,0x00,0x00,0x00,0x00,0x00,0x00,
 0x00,0x00,0x00,0x00,0x00,0x00,0x00,0x00,0xc0,0x00,0x00,0x00,0x00,0x00,0x00,
 0x00,0x00,0x00,0x00,0x00,0x00,0x00,0x00,0x00,0x00,0x00,0x00,0xc0,0x00,0x00,
 0x00,0x00,0x00,0x00,0x1e,0x00,0x00,0x00,0x00,0x00,0x00,0x00,0x00,0x00,0x00,
 0x00,0xc0,0x00,0x00,0x00,0x00,0x00,0x00,0x30,0x00,0x00,0x00,0x00,0x00,0x00,
 0x00,0x00,0x00,0x00,0x00,0xc0,0x00,0x00,0x00,0x00,0x00,0x00,0x20,0x00,0x00,
 0x00,0x00,0x00,0x00,0x00,0x00,0x00,0x00,0x00,0xc0,0x00,0x00,0x00,0x00,0x00,
 0x00,0xc0,0x01,0x00,0x00,0x00,0x00,0x00,0x00,0x00,0x00,0x00,0x00,0xc0,0x00,
 0x00,0x00,0x00,0x00,0x00,0xc0,0x03,0x00,0x00,0x00,0x00,0x00,0x00,0x00,0x00,
 0x00,0x00,0xc0,0x00,0x00,0x00,0x00,0x00,0x00,0x80,0x1f,0x00,0x00,0x00,0x00,
 0x00,0x00,0x00,0x00,0x00,0x00,0xc0,0x00,0x00,0x00,0x00,0x00,0x00,0x00,0x7f,
 0x00,0x00,0x00,0x00,0x00,0x00,0x00,0x00,0x00,0x00,0xc0,0x00,0x00,0x00,0x00,
 0x00,0x00,0x00,0xff,0x01,0x00,0x00,0x00,0x00,0x00,0x00,0x00,0x00,0x00,0xc0,
 0x00,0x00,0x00,0x00,0x00,0x00,0x00,0xfe,0x07,0x00,0x00,0x00,0x00,0x00,0x00,
 0x00,0x00,0x00,0xc0,0x00,0x00,0x00,0x00,0x00,0x00,0x00,0xfc,0x1f,0x00,0x00,
 0x00,0x00,0x00,0x00,0x00,0x00,0x00,0xc0,0x00,0x00,0x00,0x00,0x00,0x00,0x00,
 0xfc,0x7f,0x00,0x00,0x00,0x00,0xe0,0x00,0x00,0x00,0x00,0xc0,0x00,0x00,0x00,
 0x00,0x00,0x00,0x00,0xfc,0xff,0x01,0x00,0x00,0x00,0xf0,0x00,0x00,0x00,0x00,
 0xc0,0x00,0x00,0x00,0x00,0x00,0x00,0x00,0xf0,0xff,0x07,0x00,0x00,0x00,0xfe,
 0x00,0x00,0x00,0x00,0xc0,0x00,0x00,0x00,0x00,0x00,0x00,0x00,0xf0,0xff,0x0f,
 0x00,0x00,0x00,0xff,0x00,0x00,0x00,0x00,0xc0,0x00,0x00,0x00,0x00,0x00,0x00,
 0x00,0xf0,0xff,0x7f,0x00,0x00,0xf0,0xff,0x00,0x00,0x00,0x00,0xc0,0x00,0x00,
 0x00,0x00,0x00,0x00,0x00,0xe0,0xff,0xff,0x00,0x00,0xf8,0xff,0xc0,0x7f,0xff,
 0x03,0xc0,0x00,0x00,0x00,0x00,0x00,0x00,0x00,0xc0,0xff,0xff,0x07,0x00,0xfe,
 0xff,0x40,0x4e,0x0c,0x03,0xc0,0x00,0x00,0x00,0x00,0x00,0x00,0x00,0xc0,0xff,
 0xff,0x3f,0xe0,0xff,0xff,0x41,0x4e,0x0c,0x02,0xc0,0x00,0x00,0x00,0x00,0x00,
 0x00,0x00,0x80,0xff,0xff,0x7f,0xf0,0xff,0xff,0x01,0x0e,0x8c,0x00,0xc0,0x00,
 0x00,0x00,0x00,0x00,0x00,0x00,0x80,0xff,0xff,0xff,0xff,0xff,0xff,0x01,0x0e,
 0xcc,0x00,0xc0,0x00,0x00,0x00,0x00,0x00,0x00,0x00,0x80,0xff,0xff,0xff,0xff,
 0xff,0xff,0x01,0x0e,0xfc,0x00,0xc0,0x00,0x00,0x00,0x00,0x00,0x00,0x00,0x00,
 0xff,0xff,0x7f,0xf0,0xff,0xff,0x01,0x0e,0x8c,0x00,0xc0,0x00,0x00,0x00,0x00,
 0x00,0x00,0xc0,0x01,0xfe,0xff,0x1f,0xe0,0xff,0xff,0x01,0x0e,0x8c,0x00,0xc0,
 0x00,0x00,0x00,0x00,0xe0,0x0f,0xc0,0x01,0xfe,0xff,0x03,0x00,0xff,0xff,0x01,
 0x0e,0x0c,0x00,0xc0,0x00,0x00,0x00,0x00,0xe0,0x0f,0xc0,0x01,0xfc,0xff,0x01,
 0x00,0xfe,0xff,0x01,0x0e,0x0c,0x02,0xc0,0x00,0x00,0x00,0x00,0x80,0x01,0x00,
 0x00,0xf8,0x3f,0x00,0x00,0xf0,0xff,0x01,0x1f,0xff,0x03,0xc0,0x00,0x00,0x00,
 0x00,0x80,0x01,0xf0,0x01,0xf8,0x0f,0x00,0x00,0xe0,0xff,0x03,0x00,0x00,0x00,
 0xc0,0x00,0x00,0x00,0x00,0x80,0x01,0xf0,0x01,0xf8,0x03,0x00,0x00,0x00,0xff,
 0x03,0x00,0x00,0x00,0xc0,0x00,0x00,0x00,0x00,0x80,0x01,0x80,0x01,0x70,0x00,
 0x00,0x00,0x00,0xfc,0x03,0x00,0x00,0x00,0xc0,0x00,0x00,0x00,0x00,0x80,0x01,
 0x80,0x01,0x20,0x00,0x00,0x00,0x00,0xf0,0x03,0x00,0x00,0x02,0xc0,0x00,0x00,
 0x00,0x00,0x80,0xc1,0x80,0x01,0x00,0x00,0x00,0x00,0x00,0xc0,0x07,0x00,0x00,
 0x03,0xc0,0x00,0x00,0x00,0x00,0x80,0xc1,0x80,0x01,0x00,0x00,0x00,0x00,0x00,
 0x00,0x07,0x00,0x80,0x01,0xc0,0x00,0x00,0x00,0x00,0x80,0xc1,0x80,0x01,0x00,
 0x00,0x00,0x00,0x00,0x00,0x04,0x00,0xc0,0x01,0xc0,0x00,0x00,0x00,0x00,0x80,
 0xc1,0x80,0x01,0x00,0x00,0x00,0x00,0x00,0x00,0x00,0x00,0xe0,0x01,0xc0,0x00,
 0x00,0x00,0x00,0xe0,0xff,0xf8,0x1f,0x00,0x00,0x00,0xf8,0x81,0xc7,0x00,0x00,
 0xf0,0x01,0xc0,0x00,0x00,0x00,0x00,0xe0,0xff,0xf8,0x1f,0x00,0x00,0x00,0x88,
 0xc1,0xcc,0x00,0x00,0xf8,0x00,0xc0,0x00,0x00,0x00,0x00,0x00,0x00,0x00,0x00,
 0x00,0x00,0x00,0x84,0x63,0xc0,0x00,0x00,0xfe,0x00,0xc0,0x00,0x00,0x00,0x00,
 0x00,0x00,0x00,0x00,0x00,0x00,0x00,0x06,0x67,0x60,0x00,0x00,0xff,0x00,0xc0,
 0x00,0x00,0x00,0x00,0xc0,0x03,0x00,0x00,0x00,0x00,0x00,0x06,0x36,0x70,0x00,
 0x80,0xff,0x00,0xc0,0x00,0x00,0x00,0x00,0xfc,0x1f,0x00,0xf8,0x7f,0x00,0x00,
 0x06,0x36,0x30,0x00,0xc0,0x7f,0x00,0xc0,0x00,0x00,0x00,0x00,0xfc,0x3f,0x00,
 0xf8,0x7f,0x00,0x00,0x06,0x36,0x30,0x00,0xe0,0x7f,0x00,0xc0,0x00,0x00,0x00,
 0x00,0xff,0xff,0x00,0x80,0x07,0x00,0x00,0x06,0x72,0x30,0x00,0xf0,0x3f,0x00,
 0xc0,0x00,0x00,0x00,0x00,0xff,0xff,0x00,0x80,0x07,0x00,0x00,0x06,0x73,0x30,
 0x01,0xf8,0x3f,0x00,0xc0,0x00,0x00,0x00,0xc0,0xff,0xff,0x01,0x80,0x07,0xf0,
 0x00,0x9e,0xe1,0xcc,0x01,0xfe,0x3f,0x00,0xc0,0x00,0x00,0x00,0xc0,0xff,0xff,
 0x01,0x80,0x07,0xf8,0x01,0xf6,0xc0,0xcc,0x00,0xfe,0x1f,0x00,0xc0,0x00,0x00,
 0x00,0xc0,0xff,0xff,0x03,0x80,0x07,0xfe,0x03,0x06,0x00,0x00,0x80,0xff,0x0f,
 0x00,0xc0,0x00,0x00,0x00,0xc0,0xff,0xff,0x03,0x80,0x07,0x8e,0x03,0x06,0x00,
 0x00,0x80,0xff,0x0f,0x00,0xc0,0x00,0x00,0x00,0xe0,0xff,0xff,0x03,0x80,0x07,
 0x06,0x07,0x06,0x00,0x00,0xe0,0xff,0x07,0x00,0xc0,0x00,0x00,0x00,0xe0,0xff,
 0xff,0x03,0x80,0x07,0xfe,0x07,0x06,0x00,0x00,0xe0,0xff,0x03,0x00,0xc0,0x00,
 0x00,0x00,0xe0,0xff,0xff,0x03,0x80,0x07,0xfe,0x07,0x06,0x00,0x00,0xf8,0xff,
 0x03,0x00,0xc0,0x00,0x00,0x00,0xe0,0xff,0xff,0x03,0x80,0x07,0x06,0x00,0x00,
 0x00,0x00,0xfe,0xff,0x00,0x00,0xc0,0x00,0x00,0x00,0xc0,0xff,0xff,0x03,0x80,
 0x07,0x0e,0x03,0x00,0x00,0x00,0xfe,0xff,0x00,0x00,0xc0,0x00,0x00,0x00,0xc0,
 0xff,0xff,0x03,0x80,0x07,0xfe,0x03,0x00,0x00,0x00,0xff,0x7f,0x00,0x00,0xc0,
 0x00,0x00,0x00,0xc0,0xff,0xff,0x01,0x80,0x07,0xfc,0x03,0x00,0x00,0x80,0xff,
 0x3f,0x00,0x00,0xc0,0x00,0x00,0x00,0x80,0xff,0xff,0x01,0x80,0x07,0x70,0x00,
 0x00,0x00,0xc0,0xff,0x1f,0x00,0x00,0xc0,0x00,0x00,0x00,0x00,0xff,0xff,0x00,
 0x00,0x00,0x00,0x00,0x00,0x00,0xe0,0xff,0x1f,0x00,0x00,0xc0,0x00,0x00,0x00,
 0x00,0xff,0x7f,0x00,0x00,0x00,0x00,0x00,0x00,0x00,0xf0,0xff,0x07,0x00,0x00,
 0xc0,0x00,0x00,0x00,0x00,0xfc,0x3f,0x00,0x00,0x00,0x00,0x00,0x00,0x00,0xf8,
 0xff,0x03,0x00,0x00,0xc0,0x00,0x00,0x00,0x00,0xf0,0x0f,0x00,0x00,0x00,0x00,
 0x00,0x00,0x00,0xfe,0xff,0x00,0x00,0x00,0xc0,0x00,0x00,0x00,0x00,0xc0,0x03,
 0x00,0x00,0x00,0x00,0x00,0x00,0x00,0xff,0x7f,0x00,0x00,0x00,0xc0,0x00,0x00,
 0x00,0x00,0x00,0x00,0x00,0x00,0x00,0x00,0x00,0x00,0x80,0xff,0x1f,0x00,0x00,
 0x00,0xc0,0x00,0x00,0x80,0x1d,0x4e,0x70,0x00,0x00,0x00,0x00,0x00,0x00,0xc0,
 0xff,0x07,0x00,0x00,0x00,0xc0,0x00,0x00,0xe0,0xbd,0x6f,0xd8,0x01,0x00,0x00,
 0x00,0x00,0x00,0xe0,0xff,0x01,0x00,0x00,0x00,0xc0,0x00,0x00,0xc0,0x33,0x77,
 0x86,0x01,0x00,0x00,0x00,0x00,0x00,0xf0,0x3f,0x03,0x00,0x00,0x00,0xc0,0x00,
 0x00,0xc0,0x31,0x4f,0x86,0x01,0x00,0x00,0x00,0x00,0x00,0xf8,0x07,0x03,0x00,
 0x00,0x00,0xc0,0x00,0x00,0xc0,0x39,0x07,0xc7,0x01,0x00,0x00,0x00,0x00,0x00,
 0x00,0x00,0x00,0x00,0x00,0x00,0xc0,0x00,0x00,0xc0,0x39,0x87,0xc7,0x01,0x00,
 0x00,0x00,0x00,0x00,0x00,0x00,0x00,0x00,0x00,0x00,0xc0,0x00,0x00,0xe0,0x3c,
 0x83,0xe3,0x01,0x00,0x00,0x00,0x00,0x00,0x00,0x00,0x00,0x00,0x00,0x00,0xc0,
 0x00,0x00,0xe0,0x1c,0x83,0xe3,0xf0,0x40,0xe2,0xc1,0x0c,0x83,0x19,0x07,0x43,
 0x0e,0x3c,0x00,0xc0,0x00,0x00,0x60,0x8c,0x03,0x63,0x08,0xc7,0x37,0xc6,0x79,
 0x86,0xf3,0x0c,0xe3,0x18,0xe3,0x00,0xc0,0x00,0x00,0xe0,0x86,0x03,0x77,0x0c,
 0xc3,0x30,0xc6,0x30,0x86,0x71,0x0c,0x63,0x18,0x43,0x00,0xc0,0x00,0x00,0x60,
 0x00,0x00,0x00,0x0c,0x43,0x80,0xc7,0x30,0x86,0x31,0x0c,0x63,0x18,0x43,0x00,
 0xc0,0x00,0x00,0x70,0x00,0x00,0x00,0x18,0x43,0x60,0xc6,0x30,0x86,0x31,0x0c,
 0x63,0x18,0x63,0x00,0xc0,0x00,0x00,0x70,0x00,0x00,0x00,0xb0,0x41,0x20,0xc6,
 0x30,0x86,0x31,0x0c,0x63,0x18,0x36,0x00,0xc0,0x00,0x00,0x78,0x00,0x00,0x00,
 0x10,0x40,0x18,0xc6,0x30,0x86,0x31,0x0c,0x63,0x18,0x02,0x00,0xc0,0x00,0x00,
 0xfc,0x00,0x00,0x00,0x08,0x40,0x18,0xc7,0x30,0x86,0x31,0x0c,0x63,0x18,0x03,
 0x00,0xc0,0x00,0x00,0x00,0x00,0x00,0x00,0xfc,0x41,0xf0,0xce,0x30,0x86,0x31,
 0x0c,0x63,0x18,0x3f,0x00,0xc0,0x00,0x00,0x00,0x00,0x00,0x00,0xf8,0xf3,0x61,
 0xf6,0x7d,0xff,0xfb,0xbe,0xf7,0x3d,0xff,0x00,0xc0,0x80,0xff,0xff,0xff,0xff,
 0x00,0x0c,0x04,0x00,0x00,0x00,0x00,0x00,0x00,0x00,0x00,0x81,0x00,0xc0,0x80,
 0xff,0xff,0xff,0xff,0x00,0x04,0x04,0x00,0x00,0x00,0x00,0x00,0x00,0x00,0x80,
 0x80,0x00,0xc0,0x80,0xff,0xff,0xff,0xff,0x00,0x0c,0x03,0x00,0x00,0x00,0x00,
 0x00,0x00,0x00,0x80,0xc3,0x00,0xc0,0x80,0xff,0xff,0xff,0xff,0x00,0xfc,0x01,
 0x00,0x00,0x00,0x00,0x00,0x00,0x00,0x00,0x3f,0x00,0xc0,0x80,0xff,0xff,0xff,
 0xff,0x00,0x00,0x00,0x00,0x00,0x00,0x00,0x00,0x00,0x00,0x00,0x00,0x00,0xc0,
 0x80,0xff,0xff,0xff,0xff,0x00,0x00,0x00,0x00,0x00,0x00,0x00,0x00,0x00,0x00,
 0x00,0x00,0x00,0xc0,0x80,0xff,0xff,0xff,0xff,0xff,0xff,0xff,0xff,0xff,0xff,
 0xff,0xff,0xff,0xff,0xff,0xff,0xff,0xc0,0x80,0xff,0xff,0xff,0xff,0xff,0xff,
 0xff,0xff,0xff,0xff,0xff,0xff,0xff,0xff,0xff,0xff,0xff,0xc0,0x80,0xff,0xff,
 0xff,0xff,0xff,0xff,0xff,0xff,0xff,0xff,0xff,0xff,0xff,0xff,0xff,0xff,0xff,
 0xc0,0x80,0xff,0xff,0xff,0xff,0xff,0xff,0xff,0xff,0xff,0xff,0xff,0xff,0xff,
 0xff,0xff,0xff,0xff,0xc0,0x00,0x00,0x00,0x00,0x00,0x00,0x00,0x00,0x00,0x00,
 0x00,0x00,0x00,0x00,0x00,0x00,0x00,0x00,0xc0,0x00,0x00,0x00,0x00,0x00,0x00,
 0x00,0x00,0x00,0x00,0x00,0x00,0x00,0x00,0x00,0x00,0x00,0x00,0xc0,0x00,0x00,
 0x00,0x00,0x00,0x00,0x00,0x00,0x00,0x00,0x00,0x00,0x00,0x00,0x00,0x00,0x00,
 0x00,0xc0,0x00,0x00,0x00,0x00,0x00,0x00,0x00,0x00,0x00,0x00,0x00,0x00,0x00,
 0x00,0x00,0x00,0x00,0x00,0xc0,0x00,0x00,0x00,0x00,0x00,0x00,0x00,0x00,0x00,
 0x00,0x00,0x00,0x00,0x00,0x00,0x00,0x00,0x00,0xc0,0x00,0x00,0x00,0x00,0x00,
 0x00,0x00,0x00,0x00,0x00,0x00,0x00,0x00,0x00,0x00,0x00,0x00,0x00,0xc0};
